<svg width="30" height="31" viewBox="0 0 30 31" fill="#6750a4" xmlns="http://www.w3.org/2000/svg">
<circle cx="15" cy="15.3521" r="15" fill="#6750a4"/>
<path d="M15.1233 17.4068C14.3576 17.4068 13.7095 17.1416 13.1791 16.6113C12.6488 16.0809 12.3836 15.4328 12.3836 14.6671V8.09176C12.3836 7.32606 12.6488 6.67801 13.1791 6.14762C13.7095 5.61724 14.3576 5.35205 15.1233 5.35205C15.889 5.35205 16.537 5.61724 17.0674 6.14762C17.5978 6.67801 17.863 7.32606 17.863 8.09176V14.6671C17.863 15.4328 17.5978 16.0809 17.0674 16.6113C16.537 17.1416 15.889 17.4068 15.1233 17.4068ZM14.3014 25.3521V21.7398C12.4932 21.5333 10.9909 20.7577 9.79453 19.4132C8.59818 18.0686 8 16.4866 8 14.6671H9.64381C9.64381 16.1831 10.1781 17.4753 11.2466 18.5438C12.3151 19.6123 13.6073 20.1466 15.1233 20.1466C16.6393 20.1466 17.9315 19.6123 19 18.5438C20.0685 17.4753 20.6027 16.1831 20.6027 14.6671H22.2466C22.2466 16.4866 21.6484 18.0686 20.452 19.4132C19.2557 20.7577 17.7534 21.5333 15.9452 21.7398V25.3521H14.3014ZM15.1233 15.763C15.4338 15.763 15.6941 15.658 15.9041 15.4479C16.1141 15.2379 16.2192 14.9776 16.2192 14.6671V8.09176C16.2192 7.78125 16.1141 7.52098 15.9041 7.31093C15.6941 7.10089 15.4338 6.99586 15.1233 6.99586C14.8128 6.99586 14.5525 7.10089 14.3425 7.31093C14.1324 7.52098 14.0274 7.78125 14.0274 8.09176V14.6671C14.0274 14.9776 14.1324 15.2379 14.3425 15.4479C14.5525 15.658 14.8128 15.763 15.1233 15.763Z" fill="white"/>
</svg>