<svg width="30" height="31" viewBox="0 0 30 31" fill="none" xmlns="http://www.w3.org/2000/svg">
<circle cx="15" cy="15.3521" r="15" fill="#0088CC"/>
<path d="M13.2947 25.3521C11.8248 25.3521 10.5749 24.8371 9.54493 23.8071C8.51498 22.7772 8 21.5273 8 20.0574V9.19744C8 8.13996 8.37654 7.23469 9.12961 6.48163C9.88266 5.72858 10.7879 5.35205 11.8454 5.35205C12.9029 5.35205 13.8082 5.72858 14.5612 6.48163C15.3143 7.23469 15.6908 8.13996 15.6908 9.19744V17.4873H14.4928V9.19744C14.4928 8.45618 14.2368 7.82964 13.7248 7.31783C13.2128 6.806 12.5861 6.55009 11.8446 6.55009C11.1031 6.55009 10.4766 6.806 9.9652 7.31783C9.45377 7.82964 9.19806 8.45618 9.19806 9.19744V20.0574C9.19806 21.1885 9.59883 22.154 10.4004 22.954C11.2019 23.754 12.1654 24.154 13.291 24.154C13.7856 24.154 14.2512 24.0729 14.6879 23.9105C15.1247 23.7482 15.5169 23.5215 15.8647 23.2303V24.6815C15.4796 24.8915 15.0714 25.0558 14.6401 25.1743C14.2089 25.2928 13.7604 25.3521 13.2947 25.3521ZM18.0677 24.212V21.1975H15.0532V19.6903H18.0677V16.6758H19.5749V19.6903H22.5894V21.1975H19.5749V24.212H18.0677ZM13.2947 20.1927V21.3907C12.6235 21.3907 12.0564 21.1591 11.5932 20.6958C11.1301 20.2326 10.8986 19.6655 10.8986 18.9946V9.19744H12.0966V18.9946C12.0966 19.334 12.2114 19.6186 12.4411 19.8482C12.6707 20.0778 12.9552 20.1927 13.2947 20.1927ZM17.3913 14.5308V9.19744H18.5894V14.5308H17.3913Z" fill="white"/>
</svg>
